<svg aria-hidden="true"
     style="position:absolute;width:0;height:0"
     xmlns="http://www.w3.org/2000/svg"
     overflow="hidden">
  <defs>
    <symbol id="icon-checkbox"
            viewBox="0 0 20 20">
      <path fillRule="evenodd"
            d="M16.707 5.293a1 1 0 010 1.414l-8 8a1 1 0 01-1.414 0l-4-4a1 1 0 111.414-1.414L8 12.586l7.293-7.293a1 1 0 011.414 0z"
            clipRule="evenodd" />
    </symbol>

    <svg id="icon-change"
         viewBox="0 0 17 15">
      <path
            d="M14.9703 0.295821L16.6703 2.3858C16.764 2.47876 16.8384 2.58936 16.8891 2.71122C16.9399 2.83308 16.9661 2.96379 16.9661 3.0958C16.9661 3.22781 16.9399 3.35852 16.8891 3.48037C16.8384 3.60223 16.764 3.71284 16.6703 3.8058L6.79026 13.6758L1.20026 14.7958C1.03826 14.8289 0.870587 14.8213 0.712238 14.7738C0.553889 14.7262 0.409808 14.6401 0.292893 14.5232C0.175978 14.4062 0.0898775 14.2622 0.0422981 14.1038C-0.00528126 13.9455 -0.0128544 13.7778 0.0202566 13.6158L1.14026 8.0358L13.5503 0.295798C13.6432 0.20207 13.7538 0.127676 13.8757 0.0769069C13.9975 0.0261382 14.1282 0 14.2603 0C14.3923 0 14.523 0.0261382 14.6448 0.0769069C14.7667 0.127676 14.8773 0.202093 14.9703 0.295821Z" />
    </svg>

    <svg id="icon-delete"
         viewBox="0 0 38 50">
      <g>
        <path
              d="M36 7H27V6C27 3.243 24.757 1 22 1H16C13.243 1 11 3.243 11 6V7H2C1.46957 7 0.96086 7.21071 0.585787 7.58579C0.210714 7.96086 0 8.46957 0 9V12C0 12.5304 0.210714 13.0391 0.585787 13.4142C0.96086 13.7893 1.46957 14 2 14H36C36.5304 14 37.0391 13.7893 37.4142 13.4142C37.7893 13.0391 38 12.5304 38 12V9C38 8.46957 37.7893 7.96086 37.4142 7.58579C37.0391 7.21071 36.5304 7 36 7ZM15 6C15 5.449 15.449 5 16 5H22C22.551 5 23 5.449 23 6V7H15V6ZM35.28 16.655C35.0925 16.4488 34.864 16.284 34.6092 16.1712C34.3543 16.0584 34.0787 16.0001 33.8 16H4.2C3.92129 16.0001 3.64567 16.0585 3.39082 16.1713C3.13597 16.2842 2.90751 16.449 2.72006 16.6553C2.53262 16.8616 2.39034 17.1047 2.30233 17.3692C2.21432 17.6336 2.18253 17.9135 2.209 18.191L4.667 43.879C4.946 46.799 7.515 49.001 10.643 49.001H27.357C30.484 49.001 33.054 46.799 33.333 43.879L35.791 18.191C35.8176 17.9135 35.7858 17.6335 35.6978 17.369C35.6098 17.1045 35.4675 16.8613 35.28 16.655ZM14.326 43.996C14.283 43.998 14.241 44 14.198 44C13.6897 43.9995 13.2007 43.8055 12.8303 43.4574C12.46 43.1093 12.236 42.6333 12.204 42.126L11.004 23.126C10.9709 22.5967 11.1492 22.0759 11.4998 21.678C11.8505 21.2801 12.3447 21.0377 12.874 21.004C13.403 20.9719 13.9233 21.1507 14.3209 21.5011C14.7186 21.8515 14.9613 22.3451 14.996 22.874L16.196 41.874C16.2291 42.4033 16.0508 42.9241 15.7002 43.322C15.3495 43.7199 14.8553 43.9623 14.326 43.996ZM25.796 42.126C25.7808 42.3891 25.7137 42.6465 25.5986 42.8836C25.4836 43.1207 25.3228 43.3327 25.1255 43.5074C24.9283 43.6822 24.6985 43.8162 24.4492 43.9018C24.2 43.9875 23.9363 44.023 23.6733 44.0064C23.4103 43.9898 23.1532 43.9214 22.9168 43.8051C22.6803 43.6888 22.4691 43.5269 22.2954 43.3288C22.1217 43.1306 21.9889 42.9001 21.9045 42.6504C21.8202 42.4008 21.786 42.1369 21.804 41.874L23.004 22.874C23.04 22.3466 23.2834 21.8549 23.6809 21.5064C24.0785 21.158 24.5978 20.981 25.1253 21.0143C25.6529 21.0476 26.1459 21.2885 26.4964 21.6842C26.8469 22.0799 27.0266 22.5983 26.996 23.126L25.796 42.126Z" />
      </g>
    </svg>

    <symbol id="icon-plus"
            viewBox="0 0 32 32">
      <g>
        <path d="M14 14H3a2 2 0 0 0 0 4h11v11a2 2 0 0 0 4 0V18h11a2 2 0 0 0 0-4H18V3a2 2 0 0 0-4 0z"></path>
      </g>
    </symbol>
  </defs>
</svg>
